# xmcd CD database file
#
# Track frame offsets:
#	150
#	30421
#	46865
#	61916
#	68599
#	83775
#	104702
#	124663
#	135679
#	151393
#	177923
#	190023
#	215300
#
# Disc length: 3168 seconds
#
# Revision: 0
# Processed by: cddbd v1.5PL3 Copyright (c) Steve Scherf et al.
# Submitted via: CDex 1.51
#
DISCID=a90c5e0d
DTITLE=D' Kwaschen Retashy - Tak, pa nikak nacik
DYEAR=2004
DGENRE=Country
TTITLE0=(Lezejsa) Baba, malo me njaj
TTITLE1=Metal and Blues
TTITLE2=Ge rad pigen
TTITLE3=Retas mora bit'
TTITLE4=Volimo
TTITLE5=Ge pogrejsan tebej
TTITLE6=Bouzaj me
TTITLE7=Bisnen
TTITLE8=Vozicek na 3
TTITLE9=Raste gandza zelena
TTITLE10=Jingle Bells po varasko
TTITLE11=(Zmetnejsa) Baba, malo me njaj
TTITLE12=Video dodatek (aplagt)
EXTD=YEAR: 2004
EXTT0=
EXTT1=
EXTT2=
EXTT3=
EXTT4=
EXTT5=
EXTT6=
EXTT7=
EXTT8=
EXTT9=
EXTT10=
EXTT11=
EXTT12=
PLAYORDER=
